<mxfile host="app.diagrams.net" modified="2024-06-06T12:16:05.652Z" agent="Mozilla/5.0 (Macintosh; Intel Mac OS X 10_15_7) AppleWebKit/537.36 (KHTML, like Gecko) Chrome/124.0.0.0 Safari/537.36" etag="nUYsV3MLhBIXxt-cA6N-" version="24.4.13" type="github" pages="2">
  <diagram name="第 1 页" id="lf6KEcUW7krj2NV99V1O">
    <mxGraphModel dx="1026" dy="685" grid="1" gridSize="10" guides="1" tooltips="1" connect="1" arrows="1" fold="1" page="1" pageScale="1" pageWidth="827" pageHeight="1169" math="0" shadow="0">
      <root>
        <mxCell id="0" />
        <mxCell id="1" parent="0" />
        <mxCell id="ztxj1GRvlJRtUrSpg48a-3" style="edgeStyle=orthogonalEdgeStyle;rounded=0;orthogonalLoop=1;jettySize=auto;html=1;" edge="1" parent="1" source="ztxj1GRvlJRtUrSpg48a-1" target="ztxj1GRvlJRtUrSpg48a-2">
          <mxGeometry relative="1" as="geometry" />
        </mxCell>
        <mxCell id="ztxj1GRvlJRtUrSpg48a-1" value="开始" style="rounded=1;whiteSpace=wrap;html=1;" vertex="1" parent="1">
          <mxGeometry x="340" y="90" width="80" height="30" as="geometry" />
        </mxCell>
        <mxCell id="ztxj1GRvlJRtUrSpg48a-5" value="" style="edgeStyle=orthogonalEdgeStyle;rounded=0;orthogonalLoop=1;jettySize=auto;html=1;" edge="1" parent="1" source="ztxj1GRvlJRtUrSpg48a-2">
          <mxGeometry relative="1" as="geometry">
            <mxPoint x="380" y="230" as="targetPoint" />
          </mxGeometry>
        </mxCell>
        <mxCell id="ztxj1GRvlJRtUrSpg48a-2" value="i = 0" style="rounded=0;whiteSpace=wrap;html=1;" vertex="1" parent="1">
          <mxGeometry x="335" y="160" width="90" height="30" as="geometry" />
        </mxCell>
        <mxCell id="ztxj1GRvlJRtUrSpg48a-11" value="" style="edgeStyle=orthogonalEdgeStyle;rounded=0;orthogonalLoop=1;jettySize=auto;html=1;" edge="1" parent="1" source="ztxj1GRvlJRtUrSpg48a-7" target="ztxj1GRvlJRtUrSpg48a-10">
          <mxGeometry relative="1" as="geometry" />
        </mxCell>
        <mxCell id="ztxj1GRvlJRtUrSpg48a-13" value="T" style="edgeLabel;html=1;align=center;verticalAlign=middle;resizable=0;points=[];fontSize=13;" vertex="1" connectable="0" parent="ztxj1GRvlJRtUrSpg48a-11">
          <mxGeometry x="-0.15" y="1" relative="1" as="geometry">
            <mxPoint x="-1" as="offset" />
          </mxGeometry>
        </mxCell>
        <mxCell id="ztxj1GRvlJRtUrSpg48a-26" style="edgeStyle=orthogonalEdgeStyle;rounded=0;orthogonalLoop=1;jettySize=auto;html=1;entryX=0.5;entryY=0;entryDx=0;entryDy=0;" edge="1" parent="1" source="ztxj1GRvlJRtUrSpg48a-7" target="ztxj1GRvlJRtUrSpg48a-25">
          <mxGeometry relative="1" as="geometry" />
        </mxCell>
        <mxCell id="ztxj1GRvlJRtUrSpg48a-27" value="F" style="edgeLabel;html=1;align=center;verticalAlign=middle;resizable=0;points=[];" vertex="1" connectable="0" parent="ztxj1GRvlJRtUrSpg48a-26">
          <mxGeometry x="-0.7873" y="1" relative="1" as="geometry">
            <mxPoint as="offset" />
          </mxGeometry>
        </mxCell>
        <mxCell id="ztxj1GRvlJRtUrSpg48a-7" value="array[i] &amp;gt;= 0 &amp;amp;&amp;amp;&lt;div&gt;array[i] &amp;lt;= 100&lt;/div&gt;" style="rhombus;whiteSpace=wrap;html=1;rounded=0;" vertex="1" parent="1">
          <mxGeometry x="310" y="330" width="140" height="60" as="geometry" />
        </mxCell>
        <mxCell id="ztxj1GRvlJRtUrSpg48a-9" style="edgeStyle=orthogonalEdgeStyle;rounded=0;orthogonalLoop=1;jettySize=auto;html=1;entryX=0.5;entryY=0;entryDx=0;entryDy=0;" edge="1" parent="1" source="ztxj1GRvlJRtUrSpg48a-8" target="ztxj1GRvlJRtUrSpg48a-7">
          <mxGeometry relative="1" as="geometry" />
        </mxCell>
        <mxCell id="ztxj1GRvlJRtUrSpg48a-12" value="T" style="edgeLabel;html=1;align=center;verticalAlign=middle;resizable=0;points=[];fontSize=13;" vertex="1" connectable="0" parent="ztxj1GRvlJRtUrSpg48a-9">
          <mxGeometry x="-0.2" y="3" relative="1" as="geometry">
            <mxPoint x="-3" as="offset" />
          </mxGeometry>
        </mxCell>
        <mxCell id="ztxj1GRvlJRtUrSpg48a-34" style="edgeStyle=orthogonalEdgeStyle;rounded=0;orthogonalLoop=1;jettySize=auto;html=1;" edge="1" parent="1" source="ztxj1GRvlJRtUrSpg48a-8" target="ztxj1GRvlJRtUrSpg48a-33">
          <mxGeometry relative="1" as="geometry" />
        </mxCell>
        <mxCell id="ztxj1GRvlJRtUrSpg48a-35" value="F" style="edgeLabel;html=1;align=center;verticalAlign=middle;resizable=0;points=[];" vertex="1" connectable="0" parent="ztxj1GRvlJRtUrSpg48a-34">
          <mxGeometry x="-0.0444" y="2" relative="1" as="geometry">
            <mxPoint as="offset" />
          </mxGeometry>
        </mxCell>
        <mxCell id="ztxj1GRvlJRtUrSpg48a-8" value="i &amp;lt; array.length" style="rhombus;whiteSpace=wrap;html=1;rounded=0;" vertex="1" parent="1">
          <mxGeometry x="310" y="230" width="140" height="60" as="geometry" />
        </mxCell>
        <mxCell id="ztxj1GRvlJRtUrSpg48a-17" style="edgeStyle=orthogonalEdgeStyle;rounded=0;orthogonalLoop=1;jettySize=auto;html=1;entryX=0.5;entryY=0;entryDx=0;entryDy=0;" edge="1" parent="1" source="ztxj1GRvlJRtUrSpg48a-10" target="ztxj1GRvlJRtUrSpg48a-16">
          <mxGeometry relative="1" as="geometry" />
        </mxCell>
        <mxCell id="ztxj1GRvlJRtUrSpg48a-19" value="T" style="edgeLabel;html=1;align=center;verticalAlign=middle;resizable=0;points=[];" vertex="1" connectable="0" parent="ztxj1GRvlJRtUrSpg48a-17">
          <mxGeometry x="-0.25" relative="1" as="geometry">
            <mxPoint as="offset" />
          </mxGeometry>
        </mxCell>
        <mxCell id="ztxj1GRvlJRtUrSpg48a-23" style="edgeStyle=orthogonalEdgeStyle;rounded=0;orthogonalLoop=1;jettySize=auto;html=1;entryX=0.5;entryY=0;entryDx=0;entryDy=0;" edge="1" parent="1" source="ztxj1GRvlJRtUrSpg48a-10" target="ztxj1GRvlJRtUrSpg48a-22">
          <mxGeometry relative="1" as="geometry" />
        </mxCell>
        <mxCell id="ztxj1GRvlJRtUrSpg48a-24" value="F" style="edgeLabel;html=1;align=center;verticalAlign=middle;resizable=0;points=[];" vertex="1" connectable="0" parent="ztxj1GRvlJRtUrSpg48a-23">
          <mxGeometry x="-0.5034" y="1" relative="1" as="geometry">
            <mxPoint as="offset" />
          </mxGeometry>
        </mxCell>
        <mxCell id="ztxj1GRvlJRtUrSpg48a-10" value="array[i] &amp;gt;= threshold" style="rhombus;whiteSpace=wrap;html=1;rounded=0;" vertex="1" parent="1">
          <mxGeometry x="310" y="430" width="140" height="60" as="geometry" />
        </mxCell>
        <mxCell id="ztxj1GRvlJRtUrSpg48a-29" value="" style="edgeStyle=orthogonalEdgeStyle;rounded=0;orthogonalLoop=1;jettySize=auto;html=1;" edge="1" parent="1" source="ztxj1GRvlJRtUrSpg48a-16" target="ztxj1GRvlJRtUrSpg48a-28">
          <mxGeometry relative="1" as="geometry" />
        </mxCell>
        <mxCell id="ztxj1GRvlJRtUrSpg48a-16" value="array[i] = 1" style="rounded=0;whiteSpace=wrap;html=1;" vertex="1" parent="1">
          <mxGeometry x="335" y="530" width="90" height="30" as="geometry" />
        </mxCell>
        <mxCell id="ztxj1GRvlJRtUrSpg48a-30" style="edgeStyle=orthogonalEdgeStyle;rounded=0;orthogonalLoop=1;jettySize=auto;html=1;entryX=1;entryY=0.5;entryDx=0;entryDy=0;exitX=0.5;exitY=1;exitDx=0;exitDy=0;" edge="1" parent="1" source="ztxj1GRvlJRtUrSpg48a-22" target="ztxj1GRvlJRtUrSpg48a-28">
          <mxGeometry relative="1" as="geometry" />
        </mxCell>
        <mxCell id="ztxj1GRvlJRtUrSpg48a-22" value="array[i] = 0" style="rounded=0;whiteSpace=wrap;html=1;" vertex="1" parent="1">
          <mxGeometry x="480" y="530" width="90" height="30" as="geometry" />
        </mxCell>
        <mxCell id="ztxj1GRvlJRtUrSpg48a-31" style="edgeStyle=orthogonalEdgeStyle;rounded=0;orthogonalLoop=1;jettySize=auto;html=1;entryX=1;entryY=0.5;entryDx=0;entryDy=0;exitX=0.5;exitY=1;exitDx=0;exitDy=0;" edge="1" parent="1" source="ztxj1GRvlJRtUrSpg48a-25" target="ztxj1GRvlJRtUrSpg48a-28">
          <mxGeometry relative="1" as="geometry" />
        </mxCell>
        <mxCell id="ztxj1GRvlJRtUrSpg48a-25" value="array[i] = 0" style="rounded=0;whiteSpace=wrap;html=1;" vertex="1" parent="1">
          <mxGeometry x="630" y="530" width="90" height="30" as="geometry" />
        </mxCell>
        <mxCell id="ztxj1GRvlJRtUrSpg48a-32" style="edgeStyle=orthogonalEdgeStyle;rounded=0;orthogonalLoop=1;jettySize=auto;html=1;entryX=0.5;entryY=0;entryDx=0;entryDy=0;" edge="1" parent="1" source="ztxj1GRvlJRtUrSpg48a-28" target="ztxj1GRvlJRtUrSpg48a-8">
          <mxGeometry relative="1" as="geometry">
            <Array as="points">
              <mxPoint x="250" y="615" />
              <mxPoint x="250" y="210" />
              <mxPoint x="380" y="210" />
            </Array>
          </mxGeometry>
        </mxCell>
        <mxCell id="ztxj1GRvlJRtUrSpg48a-28" value="i = i + 1" style="rounded=0;whiteSpace=wrap;html=1;" vertex="1" parent="1">
          <mxGeometry x="335" y="600" width="90" height="30" as="geometry" />
        </mxCell>
        <mxCell id="ztxj1GRvlJRtUrSpg48a-33" value="结束" style="rounded=1;whiteSpace=wrap;html=1;" vertex="1" parent="1">
          <mxGeometry x="540" y="245" width="80" height="30" as="geometry" />
        </mxCell>
        <mxCell id="MBn2OuKJ7gwq_gBP0seR-1" value="1" style="text;html=1;align=center;verticalAlign=middle;resizable=0;points=[];autosize=1;strokeColor=none;fillColor=none;" vertex="1" parent="1">
          <mxGeometry x="310" y="130" width="30" height="30" as="geometry" />
        </mxCell>
        <mxCell id="MBn2OuKJ7gwq_gBP0seR-3" value="2" style="text;html=1;align=center;verticalAlign=middle;resizable=0;points=[];autosize=1;strokeColor=none;fillColor=none;" vertex="1" parent="1">
          <mxGeometry x="310" y="220" width="30" height="30" as="geometry" />
        </mxCell>
        <mxCell id="MBn2OuKJ7gwq_gBP0seR-4" value="3、4" style="text;html=1;align=center;verticalAlign=middle;resizable=0;points=[];autosize=1;strokeColor=none;fillColor=none;" vertex="1" parent="1">
          <mxGeometry x="305" y="318" width="50" height="30" as="geometry" />
        </mxCell>
        <mxCell id="MBn2OuKJ7gwq_gBP0seR-5" value="5" style="text;html=1;align=center;verticalAlign=middle;resizable=0;points=[];autosize=1;strokeColor=none;fillColor=none;" vertex="1" parent="1">
          <mxGeometry x="305" y="418" width="30" height="30" as="geometry" />
        </mxCell>
        <mxCell id="MBn2OuKJ7gwq_gBP0seR-6" value="6" style="text;html=1;align=center;verticalAlign=middle;resizable=0;points=[];autosize=1;strokeColor=none;fillColor=none;" vertex="1" parent="1">
          <mxGeometry x="315" y="498" width="30" height="30" as="geometry" />
        </mxCell>
        <mxCell id="MBn2OuKJ7gwq_gBP0seR-7" value="7" style="text;html=1;align=center;verticalAlign=middle;resizable=0;points=[];autosize=1;strokeColor=none;fillColor=none;" vertex="1" parent="1">
          <mxGeometry x="475" y="498" width="30" height="30" as="geometry" />
        </mxCell>
        <mxCell id="MBn2OuKJ7gwq_gBP0seR-8" value="8" style="text;html=1;align=center;verticalAlign=middle;resizable=0;points=[];autosize=1;strokeColor=none;fillColor=none;" vertex="1" parent="1">
          <mxGeometry x="635" y="498" width="30" height="30" as="geometry" />
        </mxCell>
        <mxCell id="MBn2OuKJ7gwq_gBP0seR-9" value="9" style="text;html=1;align=center;verticalAlign=middle;resizable=0;points=[];autosize=1;strokeColor=none;fillColor=none;" vertex="1" parent="1">
          <mxGeometry x="315" y="568" width="30" height="30" as="geometry" />
        </mxCell>
      </root>
    </mxGraphModel>
  </diagram>
  <diagram id="MEEZ5F5BzHYaPQglt7Vo" name="第 2 页">
    <mxGraphModel dx="1853" dy="685" grid="1" gridSize="10" guides="1" tooltips="1" connect="1" arrows="1" fold="1" page="1" pageScale="1" pageWidth="827" pageHeight="1169" math="0" shadow="0">
      <root>
        <mxCell id="0" />
        <mxCell id="1" parent="0" />
        <mxCell id="6iRIuwnWVJuVHXGWVnEy-1" style="edgeStyle=orthogonalEdgeStyle;rounded=0;orthogonalLoop=1;jettySize=auto;html=1;" edge="1" parent="1" source="6iRIuwnWVJuVHXGWVnEy-2" target="6iRIuwnWVJuVHXGWVnEy-4">
          <mxGeometry relative="1" as="geometry" />
        </mxCell>
        <mxCell id="6iRIuwnWVJuVHXGWVnEy-2" value="开始" style="rounded=0;whiteSpace=wrap;html=1;" vertex="1" parent="1">
          <mxGeometry x="90" y="90" width="80" height="30" as="geometry" />
        </mxCell>
        <mxCell id="6iRIuwnWVJuVHXGWVnEy-3" value="" style="edgeStyle=orthogonalEdgeStyle;rounded=0;orthogonalLoop=1;jettySize=auto;html=1;" edge="1" parent="1" source="6iRIuwnWVJuVHXGWVnEy-4">
          <mxGeometry relative="1" as="geometry">
            <mxPoint x="130" y="230" as="targetPoint" />
          </mxGeometry>
        </mxCell>
        <mxCell id="6iRIuwnWVJuVHXGWVnEy-4" value="i = 0" style="rounded=0;whiteSpace=wrap;html=1;" vertex="1" parent="1">
          <mxGeometry x="85" y="160" width="90" height="30" as="geometry" />
        </mxCell>
        <mxCell id="6iRIuwnWVJuVHXGWVnEy-5" value="" style="edgeStyle=orthogonalEdgeStyle;rounded=0;orthogonalLoop=1;jettySize=auto;html=1;" edge="1" parent="1" source="6iRIuwnWVJuVHXGWVnEy-9" target="6iRIuwnWVJuVHXGWVnEy-19">
          <mxGeometry relative="1" as="geometry" />
        </mxCell>
        <mxCell id="6iRIuwnWVJuVHXGWVnEy-6" value="T" style="edgeLabel;html=1;align=center;verticalAlign=middle;resizable=0;points=[];fontSize=13;rounded=0;" vertex="1" connectable="0" parent="6iRIuwnWVJuVHXGWVnEy-5">
          <mxGeometry x="-0.15" y="1" relative="1" as="geometry">
            <mxPoint x="-1" as="offset" />
          </mxGeometry>
        </mxCell>
        <mxCell id="6iRIuwnWVJuVHXGWVnEy-7" style="edgeStyle=orthogonalEdgeStyle;rounded=0;orthogonalLoop=1;jettySize=auto;html=1;entryX=0.5;entryY=0;entryDx=0;entryDy=0;" edge="1" parent="1" source="6iRIuwnWVJuVHXGWVnEy-9" target="6iRIuwnWVJuVHXGWVnEy-25">
          <mxGeometry relative="1" as="geometry" />
        </mxCell>
        <mxCell id="6iRIuwnWVJuVHXGWVnEy-8" value="F" style="edgeLabel;html=1;align=center;verticalAlign=middle;resizable=0;points=[];rounded=0;" vertex="1" connectable="0" parent="6iRIuwnWVJuVHXGWVnEy-7">
          <mxGeometry x="-0.7873" y="1" relative="1" as="geometry">
            <mxPoint as="offset" />
          </mxGeometry>
        </mxCell>
        <mxCell id="6iRIuwnWVJuVHXGWVnEy-9" value="array[i] &amp;gt;= 0 &amp;amp;&amp;amp;&lt;div&gt;array[i] &amp;lt;= 100&lt;/div&gt;" style="rhombus;whiteSpace=wrap;html=1;rounded=0;" vertex="1" parent="1">
          <mxGeometry x="60" y="330" width="140" height="60" as="geometry" />
        </mxCell>
        <mxCell id="6iRIuwnWVJuVHXGWVnEy-10" style="edgeStyle=orthogonalEdgeStyle;rounded=0;orthogonalLoop=1;jettySize=auto;html=1;entryX=0.5;entryY=0;entryDx=0;entryDy=0;" edge="1" parent="1" source="6iRIuwnWVJuVHXGWVnEy-14" target="6iRIuwnWVJuVHXGWVnEy-9">
          <mxGeometry relative="1" as="geometry" />
        </mxCell>
        <mxCell id="6iRIuwnWVJuVHXGWVnEy-11" value="T" style="edgeLabel;html=1;align=center;verticalAlign=middle;resizable=0;points=[];fontSize=13;rounded=0;" vertex="1" connectable="0" parent="6iRIuwnWVJuVHXGWVnEy-10">
          <mxGeometry x="-0.2" y="3" relative="1" as="geometry">
            <mxPoint x="-3" as="offset" />
          </mxGeometry>
        </mxCell>
        <mxCell id="6iRIuwnWVJuVHXGWVnEy-12" style="edgeStyle=orthogonalEdgeStyle;rounded=0;orthogonalLoop=1;jettySize=auto;html=1;" edge="1" parent="1" source="6iRIuwnWVJuVHXGWVnEy-14" target="6iRIuwnWVJuVHXGWVnEy-28">
          <mxGeometry relative="1" as="geometry" />
        </mxCell>
        <mxCell id="6iRIuwnWVJuVHXGWVnEy-13" value="F" style="edgeLabel;html=1;align=center;verticalAlign=middle;resizable=0;points=[];rounded=0;" vertex="1" connectable="0" parent="6iRIuwnWVJuVHXGWVnEy-12">
          <mxGeometry x="-0.0444" y="2" relative="1" as="geometry">
            <mxPoint as="offset" />
          </mxGeometry>
        </mxCell>
        <mxCell id="6iRIuwnWVJuVHXGWVnEy-14" value="i &amp;lt; array.length" style="rhombus;whiteSpace=wrap;html=1;rounded=0;" vertex="1" parent="1">
          <mxGeometry x="60" y="230" width="140" height="60" as="geometry" />
        </mxCell>
        <mxCell id="6iRIuwnWVJuVHXGWVnEy-15" style="edgeStyle=orthogonalEdgeStyle;rounded=0;orthogonalLoop=1;jettySize=auto;html=1;entryX=0.5;entryY=0;entryDx=0;entryDy=0;" edge="1" parent="1" source="6iRIuwnWVJuVHXGWVnEy-19" target="6iRIuwnWVJuVHXGWVnEy-21">
          <mxGeometry relative="1" as="geometry" />
        </mxCell>
        <mxCell id="6iRIuwnWVJuVHXGWVnEy-16" value="T" style="edgeLabel;html=1;align=center;verticalAlign=middle;resizable=0;points=[];rounded=0;" vertex="1" connectable="0" parent="6iRIuwnWVJuVHXGWVnEy-15">
          <mxGeometry x="-0.25" relative="1" as="geometry">
            <mxPoint as="offset" />
          </mxGeometry>
        </mxCell>
        <mxCell id="6iRIuwnWVJuVHXGWVnEy-17" style="edgeStyle=orthogonalEdgeStyle;rounded=0;orthogonalLoop=1;jettySize=auto;html=1;entryX=0.5;entryY=0;entryDx=0;entryDy=0;" edge="1" parent="1" source="6iRIuwnWVJuVHXGWVnEy-19" target="6iRIuwnWVJuVHXGWVnEy-23">
          <mxGeometry relative="1" as="geometry" />
        </mxCell>
        <mxCell id="6iRIuwnWVJuVHXGWVnEy-18" value="F" style="edgeLabel;html=1;align=center;verticalAlign=middle;resizable=0;points=[];rounded=0;" vertex="1" connectable="0" parent="6iRIuwnWVJuVHXGWVnEy-17">
          <mxGeometry x="-0.5034" y="1" relative="1" as="geometry">
            <mxPoint as="offset" />
          </mxGeometry>
        </mxCell>
        <mxCell id="6iRIuwnWVJuVHXGWVnEy-19" value="array[i] &amp;gt;= threshold" style="rhombus;whiteSpace=wrap;html=1;rounded=0;" vertex="1" parent="1">
          <mxGeometry x="60" y="430" width="140" height="60" as="geometry" />
        </mxCell>
        <mxCell id="6iRIuwnWVJuVHXGWVnEy-20" value="" style="edgeStyle=orthogonalEdgeStyle;rounded=0;orthogonalLoop=1;jettySize=auto;html=1;" edge="1" parent="1" source="6iRIuwnWVJuVHXGWVnEy-21" target="6iRIuwnWVJuVHXGWVnEy-27">
          <mxGeometry relative="1" as="geometry" />
        </mxCell>
        <mxCell id="6iRIuwnWVJuVHXGWVnEy-21" value="array[i] = 1" style="rounded=0;whiteSpace=wrap;html=1;" vertex="1" parent="1">
          <mxGeometry x="85" y="530" width="90" height="30" as="geometry" />
        </mxCell>
        <mxCell id="6iRIuwnWVJuVHXGWVnEy-22" style="edgeStyle=orthogonalEdgeStyle;rounded=0;orthogonalLoop=1;jettySize=auto;html=1;entryX=1;entryY=0.5;entryDx=0;entryDy=0;exitX=0.5;exitY=1;exitDx=0;exitDy=0;" edge="1" parent="1" source="6iRIuwnWVJuVHXGWVnEy-23" target="6iRIuwnWVJuVHXGWVnEy-27">
          <mxGeometry relative="1" as="geometry" />
        </mxCell>
        <mxCell id="6iRIuwnWVJuVHXGWVnEy-23" value="array[i] = 0" style="rounded=0;whiteSpace=wrap;html=1;" vertex="1" parent="1">
          <mxGeometry x="230" y="530" width="90" height="30" as="geometry" />
        </mxCell>
        <mxCell id="6iRIuwnWVJuVHXGWVnEy-24" style="edgeStyle=orthogonalEdgeStyle;rounded=0;orthogonalLoop=1;jettySize=auto;html=1;entryX=1;entryY=0.5;entryDx=0;entryDy=0;exitX=0.5;exitY=1;exitDx=0;exitDy=0;" edge="1" parent="1" source="6iRIuwnWVJuVHXGWVnEy-25" target="6iRIuwnWVJuVHXGWVnEy-27">
          <mxGeometry relative="1" as="geometry" />
        </mxCell>
        <mxCell id="6iRIuwnWVJuVHXGWVnEy-25" value="array[i] = 0" style="rounded=0;whiteSpace=wrap;html=1;" vertex="1" parent="1">
          <mxGeometry x="380" y="530" width="90" height="30" as="geometry" />
        </mxCell>
        <mxCell id="6iRIuwnWVJuVHXGWVnEy-26" style="edgeStyle=orthogonalEdgeStyle;rounded=0;orthogonalLoop=1;jettySize=auto;html=1;entryX=0.5;entryY=0;entryDx=0;entryDy=0;" edge="1" parent="1" source="6iRIuwnWVJuVHXGWVnEy-27" target="6iRIuwnWVJuVHXGWVnEy-14">
          <mxGeometry relative="1" as="geometry">
            <Array as="points">
              <mxPoint y="615" />
              <mxPoint y="210" />
              <mxPoint x="130" y="210" />
            </Array>
          </mxGeometry>
        </mxCell>
        <mxCell id="6iRIuwnWVJuVHXGWVnEy-27" value="i = i + 1" style="rounded=0;whiteSpace=wrap;html=1;" vertex="1" parent="1">
          <mxGeometry x="85" y="600" width="90" height="30" as="geometry" />
        </mxCell>
        <mxCell id="6iRIuwnWVJuVHXGWVnEy-28" value="结束" style="rounded=0;whiteSpace=wrap;html=1;" vertex="1" parent="1">
          <mxGeometry x="290" y="245" width="80" height="30" as="geometry" />
        </mxCell>
        <mxCell id="6iRIuwnWVJuVHXGWVnEy-29" value="1" style="text;html=1;align=center;verticalAlign=middle;resizable=0;points=[];autosize=1;strokeColor=none;fillColor=none;rounded=0;" vertex="1" parent="1">
          <mxGeometry x="60" y="130" width="30" height="30" as="geometry" />
        </mxCell>
        <mxCell id="6iRIuwnWVJuVHXGWVnEy-30" value="2" style="text;html=1;align=center;verticalAlign=middle;resizable=0;points=[];autosize=1;strokeColor=none;fillColor=none;rounded=0;" vertex="1" parent="1">
          <mxGeometry x="60" y="220" width="30" height="30" as="geometry" />
        </mxCell>
        <mxCell id="6iRIuwnWVJuVHXGWVnEy-31" value="3、4" style="text;html=1;align=center;verticalAlign=middle;resizable=0;points=[];autosize=1;strokeColor=none;fillColor=none;rounded=0;" vertex="1" parent="1">
          <mxGeometry x="55" y="318" width="50" height="30" as="geometry" />
        </mxCell>
        <mxCell id="6iRIuwnWVJuVHXGWVnEy-32" value="5" style="text;html=1;align=center;verticalAlign=middle;resizable=0;points=[];autosize=1;strokeColor=none;fillColor=none;rounded=0;" vertex="1" parent="1">
          <mxGeometry x="55" y="418" width="30" height="30" as="geometry" />
        </mxCell>
        <mxCell id="6iRIuwnWVJuVHXGWVnEy-33" value="6" style="text;html=1;align=center;verticalAlign=middle;resizable=0;points=[];autosize=1;strokeColor=none;fillColor=none;rounded=0;" vertex="1" parent="1">
          <mxGeometry x="65" y="498" width="30" height="30" as="geometry" />
        </mxCell>
        <mxCell id="6iRIuwnWVJuVHXGWVnEy-34" value="7" style="text;html=1;align=center;verticalAlign=middle;resizable=0;points=[];autosize=1;strokeColor=none;fillColor=none;rounded=0;" vertex="1" parent="1">
          <mxGeometry x="225" y="498" width="30" height="30" as="geometry" />
        </mxCell>
        <mxCell id="6iRIuwnWVJuVHXGWVnEy-35" value="8" style="text;html=1;align=center;verticalAlign=middle;resizable=0;points=[];autosize=1;strokeColor=none;fillColor=none;rounded=0;" vertex="1" parent="1">
          <mxGeometry x="385" y="498" width="30" height="30" as="geometry" />
        </mxCell>
        <mxCell id="6iRIuwnWVJuVHXGWVnEy-36" value="9" style="text;html=1;align=center;verticalAlign=middle;resizable=0;points=[];autosize=1;strokeColor=none;fillColor=none;rounded=0;" vertex="1" parent="1">
          <mxGeometry x="65" y="568" width="30" height="30" as="geometry" />
        </mxCell>
        <mxCell id="7ngwat3tqB6ckQk-BIX3-16" value="10" style="text;html=1;align=center;verticalAlign=middle;resizable=0;points=[];autosize=1;strokeColor=none;fillColor=none;" vertex="1" parent="1">
          <mxGeometry x="270" y="218" width="40" height="30" as="geometry" />
        </mxCell>
        <mxCell id="7ngwat3tqB6ckQk-BIX3-17" value="" style="edgeStyle=orthogonalEdgeStyle;rounded=0;orthogonalLoop=1;jettySize=auto;html=1;" edge="1" parent="1" source="7ngwat3tqB6ckQk-BIX3-18" target="7ngwat3tqB6ckQk-BIX3-22">
          <mxGeometry relative="1" as="geometry" />
        </mxCell>
        <mxCell id="7ngwat3tqB6ckQk-BIX3-18" value="1" style="ellipse;whiteSpace=wrap;html=1;aspect=fixed;rounded=0;" vertex="1" parent="1">
          <mxGeometry x="610" y="110" width="40" height="40" as="geometry" />
        </mxCell>
        <mxCell id="7ngwat3tqB6ckQk-BIX3-19" value="" style="edgeStyle=orthogonalEdgeStyle;rounded=0;orthogonalLoop=1;jettySize=auto;html=1;" edge="1" parent="1" source="7ngwat3tqB6ckQk-BIX3-22" target="7ngwat3tqB6ckQk-BIX3-27">
          <mxGeometry relative="1" as="geometry" />
        </mxCell>
        <mxCell id="7ngwat3tqB6ckQk-BIX3-20" value="T" style="edgeLabel;html=1;align=center;verticalAlign=middle;resizable=0;points=[];" vertex="1" connectable="0" parent="7ngwat3tqB6ckQk-BIX3-19">
          <mxGeometry x="-0.2" y="1" relative="1" as="geometry">
            <mxPoint as="offset" />
          </mxGeometry>
        </mxCell>
        <mxCell id="7ngwat3tqB6ckQk-BIX3-21" value="" style="edgeStyle=orthogonalEdgeStyle;rounded=0;orthogonalLoop=1;jettySize=auto;html=1;" edge="1" parent="1" source="7ngwat3tqB6ckQk-BIX3-22" target="7ngwat3tqB6ckQk-BIX3-44">
          <mxGeometry relative="1" as="geometry" />
        </mxCell>
        <mxCell id="7ngwat3tqB6ckQk-BIX3-45" value="F" style="edgeLabel;html=1;align=center;verticalAlign=middle;resizable=0;points=[];" vertex="1" connectable="0" parent="7ngwat3tqB6ckQk-BIX3-21">
          <mxGeometry x="-0.275" relative="1" as="geometry">
            <mxPoint as="offset" />
          </mxGeometry>
        </mxCell>
        <mxCell id="7ngwat3tqB6ckQk-BIX3-22" value="2" style="ellipse;whiteSpace=wrap;html=1;aspect=fixed;rounded=0;" vertex="1" parent="1">
          <mxGeometry x="610" y="190" width="40" height="40" as="geometry" />
        </mxCell>
        <mxCell id="7ngwat3tqB6ckQk-BIX3-23" value="" style="edgeStyle=orthogonalEdgeStyle;rounded=0;orthogonalLoop=1;jettySize=auto;html=1;" edge="1" parent="1" source="7ngwat3tqB6ckQk-BIX3-27" target="7ngwat3tqB6ckQk-BIX3-31">
          <mxGeometry relative="1" as="geometry" />
        </mxCell>
        <mxCell id="7ngwat3tqB6ckQk-BIX3-24" value="T" style="edgeLabel;html=1;align=center;verticalAlign=middle;resizable=0;points=[];rounded=0;" vertex="1" connectable="0" parent="7ngwat3tqB6ckQk-BIX3-23">
          <mxGeometry x="-0.2857" relative="1" as="geometry">
            <mxPoint as="offset" />
          </mxGeometry>
        </mxCell>
        <mxCell id="7ngwat3tqB6ckQk-BIX3-25" style="rounded=0;orthogonalLoop=1;jettySize=auto;html=1;exitX=1;exitY=1;exitDx=0;exitDy=0;entryX=0;entryY=0;entryDx=0;entryDy=0;" edge="1" parent="1" source="7ngwat3tqB6ckQk-BIX3-27" target="7ngwat3tqB6ckQk-BIX3-43">
          <mxGeometry relative="1" as="geometry">
            <mxPoint x="750" y="510" as="targetPoint" />
          </mxGeometry>
        </mxCell>
        <mxCell id="7ngwat3tqB6ckQk-BIX3-26" value="F" style="edgeLabel;html=1;align=center;verticalAlign=middle;resizable=0;points=[];" vertex="1" connectable="0" parent="7ngwat3tqB6ckQk-BIX3-25">
          <mxGeometry x="-0.8109" relative="1" as="geometry">
            <mxPoint as="offset" />
          </mxGeometry>
        </mxCell>
        <mxCell id="7ngwat3tqB6ckQk-BIX3-27" value="3" style="ellipse;whiteSpace=wrap;html=1;aspect=fixed;rounded=0;" vertex="1" parent="1">
          <mxGeometry x="610" y="270" width="40" height="40" as="geometry" />
        </mxCell>
        <mxCell id="7ngwat3tqB6ckQk-BIX3-28" value="T" style="edgeStyle=orthogonalEdgeStyle;rounded=0;orthogonalLoop=1;jettySize=auto;html=1;" edge="1" parent="1" source="7ngwat3tqB6ckQk-BIX3-31" target="7ngwat3tqB6ckQk-BIX3-35">
          <mxGeometry relative="1" as="geometry" />
        </mxCell>
        <mxCell id="7ngwat3tqB6ckQk-BIX3-29" style="rounded=0;orthogonalLoop=1;jettySize=auto;html=1;exitX=1;exitY=1;exitDx=0;exitDy=0;entryX=0;entryY=0;entryDx=0;entryDy=0;" edge="1" parent="1" source="7ngwat3tqB6ckQk-BIX3-31" target="7ngwat3tqB6ckQk-BIX3-43">
          <mxGeometry relative="1" as="geometry" />
        </mxCell>
        <mxCell id="7ngwat3tqB6ckQk-BIX3-30" value="F" style="edgeLabel;html=1;align=center;verticalAlign=middle;resizable=0;points=[];" vertex="1" connectable="0" parent="7ngwat3tqB6ckQk-BIX3-29">
          <mxGeometry x="-0.5776" y="-1" relative="1" as="geometry">
            <mxPoint as="offset" />
          </mxGeometry>
        </mxCell>
        <mxCell id="7ngwat3tqB6ckQk-BIX3-31" value="4" style="ellipse;whiteSpace=wrap;html=1;aspect=fixed;rounded=0;" vertex="1" parent="1">
          <mxGeometry x="610" y="348" width="40" height="40" as="geometry" />
        </mxCell>
        <mxCell id="7ngwat3tqB6ckQk-BIX3-32" value="T" style="edgeStyle=orthogonalEdgeStyle;rounded=0;orthogonalLoop=1;jettySize=auto;html=1;" edge="1" parent="1" source="7ngwat3tqB6ckQk-BIX3-35" target="7ngwat3tqB6ckQk-BIX3-37">
          <mxGeometry relative="1" as="geometry" />
        </mxCell>
        <mxCell id="7ngwat3tqB6ckQk-BIX3-33" style="rounded=0;orthogonalLoop=1;jettySize=auto;html=1;exitX=1;exitY=1;exitDx=0;exitDy=0;entryX=0;entryY=0;entryDx=0;entryDy=0;" edge="1" parent="1" source="7ngwat3tqB6ckQk-BIX3-35" target="7ngwat3tqB6ckQk-BIX3-41">
          <mxGeometry relative="1" as="geometry">
            <mxPoint x="680" y="500" as="targetPoint" />
          </mxGeometry>
        </mxCell>
        <mxCell id="7ngwat3tqB6ckQk-BIX3-34" value="F" style="edgeLabel;html=1;align=center;verticalAlign=middle;resizable=0;points=[];" vertex="1" connectable="0" parent="7ngwat3tqB6ckQk-BIX3-33">
          <mxGeometry x="-0.0593" y="-1" relative="1" as="geometry">
            <mxPoint as="offset" />
          </mxGeometry>
        </mxCell>
        <mxCell id="7ngwat3tqB6ckQk-BIX3-35" value="5" style="ellipse;whiteSpace=wrap;html=1;aspect=fixed;rounded=0;" vertex="1" parent="1">
          <mxGeometry x="610" y="428" width="40" height="40" as="geometry" />
        </mxCell>
        <mxCell id="7ngwat3tqB6ckQk-BIX3-36" value="" style="edgeStyle=orthogonalEdgeStyle;rounded=0;orthogonalLoop=1;jettySize=auto;html=1;" edge="1" parent="1" source="7ngwat3tqB6ckQk-BIX3-37" target="7ngwat3tqB6ckQk-BIX3-39">
          <mxGeometry relative="1" as="geometry" />
        </mxCell>
        <mxCell id="7ngwat3tqB6ckQk-BIX3-37" value="6" style="ellipse;whiteSpace=wrap;html=1;aspect=fixed;rounded=0;" vertex="1" parent="1">
          <mxGeometry x="610" y="510" width="40" height="40" as="geometry" />
        </mxCell>
        <mxCell id="7ngwat3tqB6ckQk-BIX3-38" style="edgeStyle=orthogonalEdgeStyle;rounded=0;orthogonalLoop=1;jettySize=auto;html=1;exitX=0;exitY=0.5;exitDx=0;exitDy=0;entryX=0;entryY=0.5;entryDx=0;entryDy=0;curved=1;" edge="1" parent="1" source="7ngwat3tqB6ckQk-BIX3-39" target="7ngwat3tqB6ckQk-BIX3-22">
          <mxGeometry relative="1" as="geometry">
            <Array as="points">
              <mxPoint x="560" y="610" />
              <mxPoint x="560" y="210" />
            </Array>
          </mxGeometry>
        </mxCell>
        <mxCell id="7ngwat3tqB6ckQk-BIX3-39" value="9" style="ellipse;whiteSpace=wrap;html=1;aspect=fixed;rounded=0;" vertex="1" parent="1">
          <mxGeometry x="610" y="590" width="40" height="40" as="geometry" />
        </mxCell>
        <mxCell id="7ngwat3tqB6ckQk-BIX3-40" style="rounded=0;orthogonalLoop=1;jettySize=auto;html=1;exitX=0;exitY=1;exitDx=0;exitDy=0;entryX=1;entryY=0;entryDx=0;entryDy=0;" edge="1" parent="1" source="7ngwat3tqB6ckQk-BIX3-41" target="7ngwat3tqB6ckQk-BIX3-39">
          <mxGeometry relative="1" as="geometry" />
        </mxCell>
        <mxCell id="7ngwat3tqB6ckQk-BIX3-41" value="7" style="ellipse;whiteSpace=wrap;html=1;aspect=fixed;rounded=0;" vertex="1" parent="1">
          <mxGeometry x="680" y="510" width="40" height="40" as="geometry" />
        </mxCell>
        <mxCell id="7ngwat3tqB6ckQk-BIX3-42" style="rounded=0;orthogonalLoop=1;jettySize=auto;html=1;exitX=0;exitY=1;exitDx=0;exitDy=0;entryX=1;entryY=0.5;entryDx=0;entryDy=0;" edge="1" parent="1" source="7ngwat3tqB6ckQk-BIX3-43" target="7ngwat3tqB6ckQk-BIX3-39">
          <mxGeometry relative="1" as="geometry" />
        </mxCell>
        <mxCell id="7ngwat3tqB6ckQk-BIX3-43" value="8" style="ellipse;whiteSpace=wrap;html=1;aspect=fixed;rounded=0;" vertex="1" parent="1">
          <mxGeometry x="750" y="510" width="40" height="40" as="geometry" />
        </mxCell>
        <mxCell id="7ngwat3tqB6ckQk-BIX3-44" value="10" style="ellipse;whiteSpace=wrap;html=1;aspect=fixed;rounded=0;" vertex="1" parent="1">
          <mxGeometry x="730" y="190" width="40" height="40" as="geometry" />
        </mxCell>
      </root>
    </mxGraphModel>
  </diagram>
</mxfile>
